#N canvas 564 140 811 653 10;
#X obj 2 52 cnv 15 350 210 empty send_canvas empty 20 12 0 14 -24198
-262144 0;
#X floatatom 224 73 5 0 0 2 min_db set_db min_db, f 5;
#X text 154 160 set minimum dB of sound;
#X text 155 174 to be monitored;
#X obj 19 78 vsl 15 160 0 100 0 0 empty db mic_input_decibel 0 -12
0 15 -262130 -1 -1 0 1;
#X obj 304 70 tgl 40 0 sender? sender_switch send 0 -10 0 14 -4034
-1 -262144 0 1;
#N canvas 216 502 243 262 sender 0;
#N canvas 233 187 499 245 sigmund-unit 0;
#X obj 39 156 outlet;
#X msg 39 124 send sig \$1 \$2 \$3 \$4;
#X text 186 124 sends <track no \, freq \, mag \, flag>;
#X obj 39 39 inlet~;
#X obj 39 75 sigmund~ -npts 4096 -hop 1024 -npeak 10 -maxfreq 8000
-minpower 40 -growth 20 -stabletime 20 tracks;
#X connect 1 0 0 0;
#X connect 3 0 4 0;
#X connect 4 0 1 0;
#X restore 7 112 pd sigmund-unit;
#X obj 7 4 adc~ 1;
#X obj 7 138 spigot;
#N canvas 32 478 466 288 netsend 0;
#X obj 87 190 netsend -u;
#X msg 95 119 connect 255.255.255.255 12345;
#X obj 43 58 inlet;
#X msg 319 137 send switch \$1;
#X obj 319 102 inlet;
#X obj 95 23 r sender?;
#X obj 95 45 sel 1;
#X msg 122 83 disconnect;
#X connect 1 0 0 0;
#X connect 2 0 0 0;
#X connect 3 0 0 0;
#X connect 4 0 3 0;
#X connect 5 0 6 0;
#X connect 6 0 1 0;
#X connect 6 1 7 0;
#X connect 7 0 0 0;
#X restore 7 202 pd netsend;
#N canvas 341 242 450 300 min_db 0;
#X obj 37 37 inlet~;
#X obj 36 200 outlet;
#X obj 37 128 env~;
#X obj 36 159 > 30;
#X text 192 29 min db threshold;
#X text 192 43 which triggers data transfer;
#X msg 190 123 30;
#X obj 190 101 loadbang;
#X obj 96 158 send db;
#X obj 190 148 send set_db;
#X obj 57 99 r min_db;
#X connect 0 0 2 0;
#X connect 2 0 3 0;
#X connect 2 0 8 0;
#X connect 3 0 1 0;
#X connect 6 0 9 0;
#X connect 7 0 6 0;
#X connect 10 0 3 1;
#X restore 124 112 pd min_db;
#X obj 81 2 r sender?;
#X msg 109 65 \; receiver_switch 0;
#X obj 50 48 sel 1;
#X obj 65 173 spigot;
#X obj 111 30 switch~;
#X connect 0 0 2 0;
#X connect 1 0 0 0;
#X connect 1 0 4 0;
#X connect 2 0 3 0;
#X connect 4 0 2 1;
#X connect 4 0 8 0;
#X connect 5 0 7 0;
#X connect 5 0 2 1;
#X connect 5 0 8 1;
#X connect 5 0 9 0;
#X connect 7 0 6 0;
#X connect 8 0 3 1;
#X restore 223 101 pd sender;
#X obj 353 52 cnv 15 420 380 empty receive_canvas empty 20 12 0 14
-24198 -262144 0;
#N canvas 63 198 710 620 chords 0;
#X obj 159 190 sel 0 1 2 3 4 5 6 7;
#X msg 54 332 3 1.25 1.5;
#X msg 124 332 3 1.2 1.5;
#X msg 206 355 4 1.2 1.5 1.8;
#X msg 192 331 4 1.25 1.5 1.875;
#X msg 262 381 4 1.25 1.5 1.8;
#X msg 276 413 4 1.2 1.42 1.66;
#X msg 388 419 3 1.25 1.6;
#X obj 251 477 t b a;
#X obj 230 499 s update;
#X obj 312 498 s ratios;
#X obj 326 154 t f b;
#X msg 273 130 1;
#X obj 249 97 change;
#X obj 290 41 r monoORtriad;
#X msg 461 69 0;
#X msg 461 89 1;
#X msg 462 109 2;
#X msg 462 129 3;
#X msg 462 149 4;
#X msg 462 169 5;
#X msg 463 189 6;
#X msg 20 246 \; chord label Major;
#X msg 146 246 \; chord label Minor;
#X msg 280 248 \; chord label Maj7;
#X msg 20 290 \; chord label Min7;
#X msg 145 289 \; chord label Dom7;
#X msg 278 288 \; chord label Dim7;
#X msg 408 290 \; chord label Aug;
#X obj 495 67 r maj;
#X obj 495 111 r maj7;
#X obj 497 151 r dom7;
#X obj 494 87 r min;
#X obj 496 131 r min7;
#X obj 497 169 r dim7;
#X obj 499 189 r aug;
#X obj 138 129 s chord_switch;
#X connect 0 0 22 0;
#X connect 0 0 1 0;
#X connect 0 1 23 0;
#X connect 0 1 2 0;
#X connect 0 2 24 0;
#X connect 0 2 4 0;
#X connect 0 3 25 0;
#X connect 0 3 3 0;
#X connect 0 4 26 0;
#X connect 0 4 5 0;
#X connect 0 5 27 0;
#X connect 0 5 6 0;
#X connect 0 6 28 0;
#X connect 0 6 7 0;
#X connect 1 0 8 0;
#X connect 2 0 8 0;
#X connect 3 0 8 0;
#X connect 4 0 8 0;
#X connect 5 0 8 0;
#X connect 6 0 8 0;
#X connect 7 0 8 0;
#X connect 8 0 9 0;
#X connect 8 1 10 0;
#X connect 11 0 0 0;
#X connect 11 1 12 0;
#X connect 12 0 13 0;
#X connect 13 0 36 0;
#X connect 14 0 13 0;
#X connect 15 0 11 0;
#X connect 16 0 11 0;
#X connect 17 0 11 0;
#X connect 18 0 11 0;
#X connect 19 0 11 0;
#X connect 20 0 11 0;
#X connect 21 0 11 0;
#X connect 29 0 15 0;
#X connect 30 0 17 0;
#X connect 31 0 19 0;
#X connect 32 0 16 0;
#X connect 33 0 18 0;
#X connect 34 0 20 0;
#X connect 35 0 21 0;
#X coords 0 620 1 619 30 30 0;
#X restore 688 87 pd chords;
#N canvas 81 359 464 499 pitchify 0;
#X floatatom 39 176 5 0 12 2 pitch_class - -, f 5;
#X obj 39 231 f;
#X floatatom 118 173 5 0 12 2 octave_number - -, f 5;
#X obj 118 192 t b f;
#X floatatom 39 320 5 0 0 0 - - -, f 5;
#X obj 39 294 mtof;
#X obj 118 253 * 12;
#X obj 39 361 pack 1 1000;
#X floatatom 102 340 5 0 0 0 - - -, f 5;
#X obj 39 383 line;
#X obj 225 225 sel 0;
#X text 281 207 send 1 to list-round;
#X text 282 224 so the freq content;
#X text 281 241 doesn't get effected;
#X obj 39 411 s freq_multiple;
#N canvas 428 149 810 729 pitch_display 0;
#X floatatom 242 57 5 0 11 0 - - -, f 5;
#X obj 183 134 sel 0 1 2 3 4 5 6 7 8 9 10 11;
#X text 578 110 octave number;
#X obj 506 566 f;
#X obj 394 568 f;
#X obj 287 569 f;
#X obj 176 570 f;
#X obj 510 403 f;
#X obj 398 405 f;
#X obj 283 400 f;
#X obj 465 248 f;
#X obj 342 242 f;
#X obj 235 243 f;
#X obj 124 244 f;
#X obj 515 109 r oct_num;
#X obj 540 536 t b f;
#X obj 425 538 t b f;
#X obj 311 539 t b f;
#X obj 204 540 t b f;
#X obj 547 373 t b f;
#X obj 421 376 t b f;
#X obj 306 371 t b f;
#X obj 481 216 t b f;
#X obj 364 208 t b f;
#X obj 250 212 t b f;
#X obj 147 212 t b f;
#X obj 173 103 f;
#X obj 161 75 t b f;
#X obj 135 428 f;
#X obj 158 398 t b f;
#X msg 93 276 \; pitch label C\$1;
#X msg 214 278 \; pitch label C#\$1;
#X msg 332 278 \; pitch label D\$1;
#X msg 460 280 \; pitch label Eb\$1;
#X msg 137 461 \; pitch label E\$1;
#X msg 277 439 \; pitch label F\$1;
#X msg 395 439 \; pitch label F#\$1;
#X msg 520 438 \; pitch label G\$1;
#X msg 502 592 \; pitch label B\$1;
#X msg 384 593 \; pitch label Bb\$1;
#X msg 272 592 \; pitch label A\$1;
#X msg 151 593 \; pitch label Ab\$1;
#X obj 161 53 r pitch_num;
#X connect 0 0 1 0;
#X connect 1 0 13 0;
#X connect 1 1 12 0;
#X connect 1 2 11 0;
#X connect 1 3 10 0;
#X connect 1 4 28 0;
#X connect 1 5 9 0;
#X connect 1 6 8 0;
#X connect 1 7 7 0;
#X connect 1 8 6 0;
#X connect 1 9 5 0;
#X connect 1 10 4 0;
#X connect 1 11 3 0;
#X connect 3 0 38 0;
#X connect 4 0 39 0;
#X connect 5 0 40 0;
#X connect 6 0 41 0;
#X connect 7 0 37 0;
#X connect 8 0 36 0;
#X connect 9 0 35 0;
#X connect 10 0 33 0;
#X connect 11 0 32 0;
#X connect 12 0 31 0;
#X connect 13 0 30 0;
#X connect 14 0 4 1;
#X connect 14 0 15 0;
#X connect 14 0 16 0;
#X connect 14 0 17 0;
#X connect 14 0 18 0;
#X connect 14 0 19 0;
#X connect 14 0 20 0;
#X connect 14 0 21 0;
#X connect 14 0 25 0;
#X connect 14 0 24 0;
#X connect 14 0 23 0;
#X connect 14 0 22 0;
#X connect 14 0 29 0;
#X connect 15 0 26 0;
#X connect 15 1 3 1;
#X connect 16 0 26 0;
#X connect 16 1 4 1;
#X connect 17 0 26 0;
#X connect 17 1 5 1;
#X connect 18 0 26 0;
#X connect 18 1 6 1;
#X connect 19 0 26 0;
#X connect 19 1 7 1;
#X connect 20 0 26 0;
#X connect 20 1 8 1;
#X connect 21 0 26 0;
#X connect 21 1 9 1;
#X connect 22 0 26 0;
#X connect 22 1 10 1;
#X connect 23 0 26 0;
#X connect 23 1 11 1;
#X connect 24 0 26 0;
#X connect 24 1 12 1;
#X connect 25 0 26 0;
#X connect 25 1 13 1;
#X connect 26 0 1 0;
#X connect 27 0 26 0;
#X connect 27 1 26 1;
#X connect 28 0 34 0;
#X connect 29 0 26 0;
#X connect 29 1 28 1;
#X connect 42 0 27 0;
#X restore 306 58 pd pitch_display;
#X obj 91 35 t f f b;
#X msg 241 52 1;
#X obj 290 116 r oct_num;
#X obj 233 78 change;
#X obj 290 138 t f f;
#X msg 225 303 1;
#N canvas 378 357 582 225 pitch_toggles 0;
#X obj 48 39 r c;
#X obj 90 39 r cis;
#X obj 129 38 r d;
#X obj 170 38 r dis;
#X obj 218 40 r e;
#X obj 261 40 r f;
#X obj 305 40 r fis;
#X obj 346 40 r g;
#X obj 385 40 r gis;
#X obj 427 40 r a;
#X obj 466 40 r ais;
#X obj 510 41 r h;
#X msg 48 83 0;
#X msg 90 84 1;
#X msg 129 84 2;
#X msg 170 83 3;
#X msg 217 84 4;
#X msg 262 85 5;
#X msg 305 86 6;
#X msg 346 85 7;
#X msg 385 86 8;
#X msg 427 87 9;
#X msg 467 86 10;
#X msg 509 87 11;
#X obj 223 156 s pitch_num;
#X connect 0 0 12 0;
#X connect 1 0 13 0;
#X connect 2 0 14 0;
#X connect 3 0 15 0;
#X connect 4 0 16 0;
#X connect 5 0 17 0;
#X connect 6 0 18 0;
#X connect 7 0 19 0;
#X connect 8 0 20 0;
#X connect 9 0 21 0;
#X connect 10 0 22 0;
#X connect 11 0 23 0;
#X connect 12 0 24 0;
#X connect 13 0 24 0;
#X connect 14 0 24 0;
#X connect 15 0 24 0;
#X connect 16 0 24 0;
#X connect 17 0 24 0;
#X connect 18 0 24 0;
#X connect 19 0 24 0;
#X connect 20 0 24 0;
#X connect 21 0 24 0;
#X connect 22 0 24 0;
#X connect 23 0 24 0;
#X restore 310 23 pd pitch_toggles;
#X obj 91 11 r pitch_num;
#X obj 290 95 s pitchify_switch;
#X obj 225 20 r pitchify;
#X text 281 190 if pitchify is off;
#X obj 158 273 loadbang;
#X obj 39 195 t b b f;
#X obj 118 227 f 5;
#X obj 39 270 + 60;
#X obj 345 287 f 0;
#X connect 0 0 28 0;
#X connect 1 0 30 0;
#X connect 2 0 3 0;
#X connect 3 0 1 0;
#X connect 3 0 29 0;
#X connect 3 1 29 1;
#X connect 4 0 7 0;
#X connect 5 0 4 0;
#X connect 6 0 30 1;
#X connect 7 0 9 0;
#X connect 8 0 7 1;
#X connect 9 0 14 0;
#X connect 10 0 21 0;
#X connect 10 1 31 0;
#X connect 16 0 0 0;
#X connect 16 1 31 1;
#X connect 16 2 17 0;
#X connect 17 0 19 0;
#X connect 18 0 20 0;
#X connect 19 0 24 0;
#X connect 20 0 2 0;
#X connect 21 0 4 0;
#X connect 23 0 16 0;
#X connect 25 0 19 0;
#X connect 25 0 10 0;
#X connect 27 0 21 0;
#X connect 28 0 1 0;
#X connect 28 1 29 0;
#X connect 28 2 1 1;
#X connect 29 0 6 0;
#X connect 30 0 5 0;
#X connect 31 0 0 0;
#X coords 0 499 1 498 128 32 0;
#X restore 686 62 pd pitchify;
#X floatatom 495 128 5 1 9 2 octave_number oct_num_init oct_num, f
5;
#X obj 367 69 tgl 40 0 receiver? receiver_switch receive 0 -10 0 14
-4034 -1 -262144 0 1;
#N canvas 574 315 500 507 netreceiver 0;
#X obj 44 248 send;
#X obj 44 158 list split 1;
#X obj 44 202 list;
#X obj 44 180 t b f;
#X text 134 157 gets the <track no \, freq \, mag \, flag>;
#X obj 44 133 route sig;
#X obj 243 230 route switch;
#X msg 76 206 symbol \$1-osc~;
#X obj 243 252 s switch;
#N canvas 295 305 197 376 osc~/units 0;
#X obj 35 322 dac~;
#X obj 34 295 catch~ main_out;
#X obj 30 249 osc_unit 10;
#X obj 28 22 osc_unit 1;
#X obj 28 46 osc_unit 2;
#X obj 29 71 osc_unit 3;
#X obj 29 100 osc_unit 4;
#X obj 30 125 osc_unit 5;
#X obj 30 149 osc_unit 6;
#X obj 30 172 osc_unit 7;
#X obj 32 196 osc_unit 8;
#X obj 31 222 osc_unit 9;
#X connect 1 0 0 0;
#X connect 1 0 0 1;
#X restore 42 295 pd osc~/units;
#N canvas 167 225 450 300 hush 0;
#X obj 135 84 + 1;
#X obj 99 86 i;
#X obj 99 61 until;
#X obj 97 112 mod 10;
#X obj 167 109 sel 9;
#X obj 99 31 sel 0;
#X obj 123 228 send;
#X obj 144 179 + 1;
#X obj 83 158 t b f;
#X msg 66 201 list 0 0 0;
#X msg 54 36 bang;
#X msg 143 202 symbol \$1-osc~;
#X obj 99 9 r switch;
#X connect 0 0 1 1;
#X connect 1 0 0 0;
#X connect 1 0 3 0;
#X connect 2 0 1 0;
#X connect 3 0 4 0;
#X connect 3 0 8 0;
#X connect 4 0 2 1;
#X connect 5 0 2 0;
#X connect 7 0 11 0;
#X connect 8 0 9 0;
#X connect 8 1 7 0;
#X connect 9 0 6 0;
#X connect 10 0 2 0;
#X connect 11 0 6 1;
#X connect 12 0 5 0;
#X restore 42 318 pd hush;
#X msg 160 80 listen 0;
#X msg 42 76 listen 12345;
#X obj 42 22 r receiver?;
#X obj 42 44 sel 1;
#X msg 236 61 \; sender_switch 0;
#X obj 128 39 switch~;
#X obj 174 295 loadbang;
#N canvas 0 22 450 300 cnv_color 0;
#X obj 80 34 r receiver?;
#X obj 80 56 sel 0 1;
#X msg 80 78 \; receive_canvas color 22;
#X msg 244 79 \; receive_canvas color 16;
#X obj 96 118 r sender?;
#X obj 96 140 sel 0 1;
#X msg 96 162 \; send_canvas color 22;
#X msg 241 160 \; send_canvas color 16;
#X obj 258 33 loadbang;
#X connect 0 0 1 0;
#X connect 1 0 2 0;
#X connect 1 1 3 0;
#X connect 4 0 5 0;
#X connect 5 0 6 0;
#X connect 5 1 7 0;
#X connect 8 0 3 0;
#X connect 8 0 7 0;
#X restore 343 124 pd cnv_color;
#X obj 43 106 netreceive 12345 1;
#X msg 174 321 \; init list 1 1 1 1 \; monoORtriad 0 \; freq_multiple
1 \; oct_num_init 5 \; oct_num 5 \; min_db 30 \; pd dsp 1;
#X connect 1 0 3 0;
#X connect 1 1 2 1;
#X connect 2 0 0 0;
#X connect 3 0 2 0;
#X connect 3 1 7 0;
#X connect 5 0 1 0;
#X connect 6 0 8 0;
#X connect 7 0 0 1;
#X connect 13 0 14 0;
#X connect 13 0 16 0;
#X connect 14 0 12 0;
#X connect 14 0 15 0;
#X connect 14 1 11 0;
#X connect 17 0 20 0;
#X connect 19 0 5 0;
#X connect 19 0 6 0;
#X restore 580 62 pd netreceiver;
#X obj 457 150 tgl 28 0 pitchify pitchify_switch empty 17 7 0 10 -262144
-1 -1 1 1;
#X obj 489 150 cnv 15 72 30 empty pitch F5 20 12 0 20 -262130 -66577
0;
#X obj 562 150 cnv 15 60 30 empty chord Dom7 5 12 0 17 -262130 -66577
0;
#X obj 354 344 cnv 15 420 48 empty empty empty 20 12 0 14 -261682 -66577
0;
#X obj 364 346 tgl 40 0 monoORtriad chord_switch empty 17 7 0 10 -262144
-1 -1 0 1;
#X obj 417 345 bng 45 250 50 0 maj empty Maj 12 20 0 13 -262144 -1
-1;
#X obj 468 345 bng 45 250 50 0 min empty Min 12 20 0 13 -262144 -1
-1;
#X obj 517 345 bng 45 250 50 0 maj7 empty Maj7 9 20 0 13 -262144 -1
-1;
#X obj 567 345 bng 45 250 50 0 min7 empty Min7 9 20 0 13 -262144 -1
-1;
#X obj 617 346 bng 45 250 50 0 dom7 empty Dom7 9 20 0 13 -262144 -1
-1;
#X obj 668 346 bng 45 250 50 0 dim7 empty Dim7 9 20 0 13 -262144 -1
-1;
#X obj 719 346 bng 45 250 50 0 aug empty Aug 12 20 0 13 -262144 -1
-1;
#X obj 353 189 cnv 15 420 110 empty empty empty 20 12 0 14 -261682
-66577 0;
#X obj 402 191 bng 50 250 50 0 cis empty Db 18 22 0 15 -262144 -1 -1
;
#X obj 457 191 bng 50 250 50 0 dis empty Eb 18 22 0 15 -262144 -1 -1
;
#X obj 369 246 bng 50 250 50 0 c empty C 22 22 0 15 -262144 -1 -1;
#X obj 426 246 bng 50 250 50 0 d empty D 22 22 0 15 -262144 -1 -1;
#X obj 483 246 bng 50 250 50 0 e empty E 22 22 0 15 -262144 -1 -1;
#X obj 567 191 bng 50 250 50 0 fis empty Gb 18 22 0 15 -262144 -1 -1
;
#X obj 624 191 bng 50 250 50 0 gis empty Ab 18 22 0 15 -262144 -1 -1
;
#X obj 681 191 bng 50 250 50 0 ais empty Bb 18 22 0 15 -262144 -1 -1
;
#X obj 597 246 bng 50 250 50 0 g empty G 22 22 0 15 -262144 -1 -1;
#X obj 655 246 bng 50 250 50 0 a empty A 22 22 0 15 -262144 -1 -1;
#X obj 712 246 bng 50 250 50 0 h empty B 22 22 0 15 -262144 -1 -1;
#X obj 540 246 bng 50 250 50 0 f empty F 22 22 0 15 -262144 -1 -1;
#X text 478 323 select chord type;
#X text 35 76 100 db;
#X text 36 146 50 db;
#X obj 123 75 vsl 30 160 0 100 0 0 min_db min_db min_db_to_be_monitored
0 175 0 15 -262130 -1 -1 4770 1;
#X text 491 104 octave_number;
